HIERARCHY
ROOT root
{
	OFFSET 0.000000 0.000000 0.000000
	CHANNELS 6 Xposition Yposition Zposition Zrotation Yrotation Xrotation
	JOINT lhip
	{
		OFFSET 0.058581 -0.082280 -0.017664
		CHANNELS 3 Zrotation Yrotation Xrotation
		JOINT lknee
		{
			OFFSET 0.043451 -0.386469 0.008037
			CHANNELS 3 Zrotation Yrotation Xrotation
			JOINT lankle
			{
				OFFSET -0.014790 -0.426874 -0.037428
				CHANNELS 3 Zrotation Yrotation Xrotation
				JOINT ltoe
				{
					OFFSET 0.041054 -0.060286 0.122042
					CHANNELS 3 Zrotation Yrotation Xrotation
					End Site
					{
						OFFSET 0.000000 0.000000 0.000000
					}
				}
			}
		}
	}
	JOINT rhip
	{
		OFFSET -0.060310 -0.090513 -0.013543
		CHANNELS 3 Zrotation Yrotation Xrotation
		JOINT rknee
		{
			OFFSET -0.043257 -0.383688 -0.004843
			CHANNELS 3 Zrotation Yrotation Xrotation
			JOINT rankle
			{
				OFFSET 0.019056 -0.420046 -0.034562
				CHANNELS 3 Zrotation Yrotation Xrotation
				JOINT rtoe
				{
					OFFSET -0.034840 -0.062106 0.130323
					CHANNELS 3 Zrotation Yrotation Xrotation
					End Site
					{
						OFFSET 0.000000 0.000000 0.000000
					}
				}
			}
		}
	}
	JOINT lowerback
	{
		OFFSET 0.004439 0.124404 -0.038385
		CHANNELS 3 Zrotation Yrotation Xrotation
		JOINT upperback
		{
			OFFSET 0.004488 0.137956 0.026820
			CHANNELS 3 Zrotation Yrotation Xrotation
			JOINT chest
			{
				OFFSET -0.002265 0.056032 0.002855
				CHANNELS 3 Zrotation Yrotation Xrotation
				JOINT lowerneck
				{
					OFFSET -0.013390 0.211636 -0.033468
					CHANNELS 3 Zrotation Yrotation Xrotation
					JOINT upperneck
					{
						OFFSET 0.010113 0.088937 0.050410
						CHANNELS 3 Zrotation Yrotation Xrotation
						End Site
						{
							OFFSET 0.000000 0.000000 0.000000
						}
					}
				}
				JOINT lclavicle
				{
					OFFSET 0.071702 0.114000 -0.018898
					CHANNELS 3 Zrotation Yrotation Xrotation
					JOINT lshoulder
					{
						OFFSET 0.122921 0.045205 -0.019046
						CHANNELS 3 Zrotation Yrotation Xrotation
						JOINT lelbow
						{
							OFFSET 0.255332 -0.015649 -0.022946
							CHANNELS 3 Zrotation Yrotation Xrotation
							JOINT lwrist
							{
								OFFSET 0.265709 0.012698 -0.007375
								CHANNELS 3 Zrotation Yrotation Xrotation
								End Site
								{
									OFFSET 0.000000 0.000000 0.000000
								}
							}
						}
					}
				}
				JOINT rclavicle
				{
					OFFSET -0.082954 0.112472 -0.023707
					CHANNELS 3 Zrotation Yrotation Xrotation
					JOINT rshoulder
					{
						OFFSET -0.113228 0.046853 -0.008472
						CHANNELS 3 Zrotation Yrotation Xrotation
						JOINT relbow
						{
							OFFSET -0.260127 -0.014369 -0.031269
							CHANNELS 3 Zrotation Yrotation Xrotation
							JOINT rwrist
							{
								OFFSET -0.269108 0.006794 -0.006027
								CHANNELS 3 Zrotation Yrotation Xrotation
								End Site
								{
									OFFSET 0.000000 0.000000 0.000000
								}
							}
						}
					}
				}
			}
		}
	}
}
MOTION
Frames: 10
Frame Time: 0.033333
1.707182 0.728886 0.982797 -90.352907 3.395999 88.467847 2.209517 -0.137315 5.812784 -1.998433 -12.764401 1.151223 5.738558 8.891584 -19.018208 0.000000 -0.000000 0.000000 2.093205 -2.264014 0.758749 2.531527 0.946478 7.312563 2.225329 -5.864981 -17.619930 0.000000 -0.000000 0.000000 -1.829745 1.787471 4.238064 1.477395 -1.892400 0.680053 1.955946 -1.173081 3.784695 3.153122 3.763832 -7.047521 2.225316 -1.521262 -1.398689 -25.813514 3.405748 2.071285 -61.898160 -5.371224 9.339669 9.816128 -27.077710 6.091463 -2.094801 -3.575446 -9.179323 24.572021 -1.238655 0.840859 61.131313 1.142830 11.789704 -14.268586 23.904565 -2.623597 6.562306 0.706293 -9.069214 
1.706357 0.728862 0.982707 -90.363695 3.437961 88.402234 2.263326 -0.113024 5.996235 -2.039259 -12.809392 1.160707 5.895615 8.967635 -19.078657 0.000000 -0.000000 0.000000 2.168291 -2.477828 0.800638 2.470336 0.862884 7.451805 1.992390 -5.617575 -17.685737 0.000000 -0.000000 0.000000 -1.708636 1.787314 4.439846 1.428787 -1.838706 0.545739 1.944221 -1.206635 3.867436 3.212344 3.857694 -7.353126 2.114600 -1.546144 -1.316025 -25.556618 3.364833 1.788964 -62.072472 -5.215061 9.355858 9.604770 -27.013141 6.844079 -2.289480 -3.294854 -8.962326 24.331680 -1.406348 0.708754 61.457705 1.124405 11.692540 -14.211010 23.885763 -2.294791 6.608094 0.622455 -9.110464 
1.706463 0.729964 0.983268 -90.481623 3.422417 88.464857 2.482991 -0.142356 5.903637 -2.338238 -12.851345 1.321183 6.213226 9.177779 -19.141701 0.000000 -0.000000 0.000000 1.994557 -2.465900 0.687781 2.838028 1.437744 8.527389 2.244642 -5.665842 -14.996034 0.000000 -0.000000 0.000000 -1.717946 1.678946 4.454669 1.393737 -1.797132 0.627857 1.925307 -1.172322 3.835197 2.963978 3.740928 -7.254345 2.208717 -1.250654 -1.546493 -25.661759 3.362338 1.918044 -61.864124 -5.279131 8.990794 8.998622 -26.682745 6.782723 -2.105474 -3.045027 -9.088223 24.390802 -1.393677 0.829697 61.360122 1.225085 11.639211 -13.950683 23.771517 -2.352556 6.607670 0.599708 -9.052114 
1.705249 0.730166 0.983188 -90.457678 3.444197 88.516263 2.475967 -0.149557 5.921477 -2.269703 -12.879561 1.331550 6.240589 9.264000 -19.204333 0.000000 -0.000000 0.000000 2.049280 -2.515961 0.768353 2.828030 1.562315 8.457820 2.369842 -5.748796 -15.006896 0.000000 -0.000000 0.000000 -1.710680 1.656551 4.449577 1.402925 -1.791677 0.616897 1.907472 -1.300048 3.981946 2.979052 4.028221 -7.633677 2.163066 -1.174801 -1.169370 -25.854852 3.552360 2.036453 -61.680011 -5.183591 8.987982 9.127866 -26.807780 6.751977 -2.104956 -2.979887 -9.064108 24.602680 -1.548956 0.659457 61.181083 1.127385 11.780976 -13.903490 23.855645 -2.376497 6.528353 0.589539 -8.988159 
1.705088 0.730372 0.983160 -90.478045 3.407260 88.515651 2.473928 -0.063726 5.926721 -2.294627 -12.947271 1.340638 6.162985 9.194124 -19.306745 0.000000 -0.000000 0.000000 2.063527 -2.559981 0.739363 2.730719 1.619265 8.546249 2.455311 -5.685757 -15.049475 0.000000 -0.000000 0.000000 -1.773168 1.666297 4.496926 1.413112 -1.777685 0.702243 1.916338 -1.270980 4.022959 3.037687 4.054861 -7.811641 2.202175 -1.237126 -1.165407 -25.899268 3.535458 2.001356 -61.575336 -5.167983 9.007174 9.099347 -26.759657 6.693873 -1.772549 -3.203024 -8.854024 24.682630 -1.549801 0.591257 61.134908 1.060410 11.747635 -13.888632 23.835810 -2.557849 6.394012 0.676978 -9.080937 
1.704737 0.730591 0.983031 -90.485115 3.380672 88.472315 2.479896 0.010180 5.970077 -2.327893 -12.936950 1.398630 6.172985 9.198775 -19.302292 0.000000 -0.000000 0.000000 1.952742 -2.642257 0.827713 2.846823 1.619081 8.529565 2.442487 -5.529481 -15.066798 0.000000 -0.000000 0.000000 -1.846699 1.614788 4.569284 1.418287 -1.872886 0.919648 1.933761 -1.170118 4.013516 3.033024 4.007176 -7.687048 2.230236 -1.345074 -1.264881 -25.761516 3.577809 1.910987 -61.733038 -5.070402 8.987581 9.164017 -26.702302 6.727735 -1.888129 -3.082748 -9.001068 24.724396 -1.486562 0.724041 61.139001 1.144230 11.680296 -13.883066 23.778109 -2.609159 6.408438 0.641269 -9.109283 
1.704317 0.730695 0.982746 -90.509043 3.375032 88.538397 2.491260 0.018984 5.921434 -2.342272 -12.925539 1.366116 6.225725 9.172299 -19.257285 0.000000 -0.000000 0.000000 1.933257 -2.654862 0.759185 2.875435 1.547453 8.555360 2.360518 -5.491312 -15.070197 0.000000 -0.000000 0.000000 -1.830258 1.731441 4.346230 1.427157 -1.845744 1.249220 1.957675 -1.161454 4.009278 2.901316 4.064277 -7.680534 2.305249 -1.159526 -1.517600 -25.857331 3.509485 2.013997 -61.711954 -5.133697 8.887222 9.143505 -26.755777 6.541878 -1.910250 -2.831886 -9.085372 24.751752 -1.499965 0.871515 61.106738 1.240946 11.495707 -13.889230 23.729924 -2.627469 6.472477 0.635211 -8.995163 
1.703830 0.730753 0.982821 -90.443449 3.407027 88.676214 2.541915 0.040394 5.756871 -2.371727 -12.911794 1.439933 6.172687 9.176007 -19.276240 0.000000 -0.000000 0.000000 1.947742 -2.714752 0.705601 2.970162 1.499608 8.434103 2.394522 -5.565306 -14.969018 0.000000 -0.000000 0.000000 -1.764736 1.752642 4.572646 1.459122 -1.825800 0.952795 1.962813 -1.230918 3.921186 2.998354 4.138118 -7.770961 2.318978 -1.127427 -1.397015 -25.900472 3.799445 1.976723 -61.663894 -4.991862 8.854862 8.898801 -26.995336 6.665024 -1.938773 -2.814906 -9.194053 24.701075 -1.771543 0.669161 61.100093 0.994701 11.573113 -13.668155 23.700573 -2.415301 6.428292 0.554381 -8.859757 
1.703506 0.730838 0.982810 -90.407502 3.421800 88.751367 2.576122 -0.015401 5.686724 -2.380473 -12.954897 1.446014 6.185895 9.201155 -19.312667 0.000000 -0.000000 0.000000 1.972764 -2.696977 0.685898 2.988226 1.518088 8.352835 2.336965 -5.632976 -14.871463 0.000000 -0.000000 0.000000 -1.705566 1.762959 4.668094 1.449534 -1.779728 0.875521 1.936110 -1.208862 3.917646 2.958534 4.291762 -7.779744 2.294505 -1.043837 -1.287295 -25.896942 3.954325 1.861970 -61.729373 -4.988379 8.913419 8.913272 -27.130161 6.663109 -1.752514 -2.916868 -9.309250 24.732028 -1.952241 0.549436 61.160485 0.961672 11.673550 -13.571675 23.412671 -2.304719 6.338654 0.622347 -8.866258 
1.703210 0.730889 0.982950 -90.449090 3.406363 88.839230 2.557001 -0.096032 5.633713 -2.353608 -12.941718 1.400666 6.188602 9.195749 -19.285097 0.000000 -0.000000 0.000000 1.955613 -2.643155 0.635829 3.013800 1.500306 8.359246 2.342685 -5.658363 -14.924714 0.000000 -0.000000 0.000000 -1.649996 1.825806 4.581341 1.434708 -1.695117 0.971519 1.929159 -1.177661 3.964887 2.970344 4.349058 -7.879256 2.397407 -1.088491 -1.206552 -25.864185 3.843755 1.876599 -61.809279 -5.099252 8.931130 9.008028 -27.111165 6.468991 -1.728977 -2.943742 -9.540050 24.690310 -1.843568 0.753468 61.225863 0.951801 11.719155 -13.492513 23.368241 -2.301922 6.370492 0.583221 -9.034366 
